# xmcd
#
# Track frame offsets:
# 225
# 23278
# 41666
# 63446
# 76462
# 100519
# 115787
# 136503
# 155118
# 175314
#
# Disc length: 2565 seconds
#
# Revision: 1
# Processed by: cddbd v1.4PL0 Copyright (c) Steve Scherf et al.
# Submitted via: CedeCatalogueitor 2.5 http://usuarios.lycos.es/kakasboy
#
DISCID=710a020a
DTITLE=Vargas Blues Band - All Around Blues
DYEAR=1900
DGENRE=
TTITLE0=Ridding High
TTITLE1=Rock Me Baby
TTITLE2=Blues Latino
TTITLE3=All Around Blues
TTITLE4=Hideway
TTITLE5=Messin With The Kid
TTITLE6=I Wonder If You Ever
TTITLE7=Blue Midnight
TTITLE8=You Don´t Know My Name
TTITLE9=Everything Is Going To Be Alright
EXTD=
EXTT0=
EXTT1=
EXTT2=
EXTT3=
EXTT4=
EXTT5=
EXTT6=
EXTT7=
EXTT8=
EXTT9=
PLAYORDER=
